<svg xmlns="http://www.w3.org/2000/svg" width="992.917" height="49.051" viewBox="0 0 992.917 49.051">
  <g id="Group_154" data-name="Group 154" transform="translate(-2092.16 1731.118) rotate(180)">
    <path id="Path_427" data-name="Path 427" d="M721.076,496.958v11.561h-8.232V496.944L702.119,503.9l-4.754-7.08,11.709-7.848L697.4,481.223l4.695-7.176,10.488,6.818V469.634h8.432v11.4l10.875-6.9c1.434,2.126,2.84,3.978,3.925,6,.243.452-.436,1.8-1.047,2.24-3.084,2.208-6.285,4.251-9.822,6.6l11.632,7.834-4.659,7.062Z" transform="translate(-1724.621 2200.752) rotate(180)" fill="#d37fcf"/>
    <path id="Path_426" data-name="Path 426" d="M601.472,475.006c2.613,0,5.3-.1,7.974.081a2.292,2.292,0,0,1,1.467,1.683c.055,11.982-11.4,23.552-23.432,24.645a26.351,26.351,0,0,1-28.6-20.245c-.433-1.866-.587-3.8-.907-5.956h9.948c.357,5.336,2.384,9.981,6.837,13.28a16.326,16.326,0,0,0,10.409,3.31C593.606,491.573,599.11,485.987,601.472,475.006Z" transform="translate(-2703.073 1225.662)" fill="#f45772"/>
    <g id="Group_152" data-name="Group 152" transform="translate(-2424 2957)">
      <path id="Path_235" data-name="Path 235" d="M420.34,474.526h39.407c0,2.628.085,5.2-.086,7.757-.027.412-1.191,1.068-1.832,1.072q-17.765.106-35.53-.007a2.52,2.52,0,0,1-1.869-1.578C420.207,479.476,420.34,477.148,420.34,474.526Z" transform="translate(-1081.378 -1741.875)" fill="#32f4ce"/>
      <g id="Group_28" data-name="Group 28" transform="translate(-660.898 -1246.544)">
        <path id="Path_168" data-name="Path 168" d="M420.461,501.493V493.1h39.045v8.391Z" transform="translate(-420.461 -493.102)" fill="#32f4ce"/>
      </g>
    </g>
    <path id="Path_428" data-name="Path 428" d="M558.5,315.3l22.641-23.263,6.262,6.437-16.631,15.884,17.852,16.974c-2.546,2.223-4.477,4.03-6.564,5.63a2.256,2.256,0,0,1-2.143-.289C572.644,329.5,565.439,322.247,558.5,315.3Z" transform="translate(-3327.106 1390.03)" fill="#2bc8ff"/>
  </g>
</svg>
