<svg xmlns="http://www.w3.org/2000/svg" width="74.709" height="74.08" viewBox="0 0 74.709 74.08">
  <path id="Path_306" data-name="Path 306" d="M742.536,521.688v22.025H726.854V521.663c-7.346,4.764-13.61,8.825-20.432,13.25l-9.057-13.489,22.307-14.95-22.237-14.76c2.942-4.5,5.709-8.724,8.944-13.67l19.982,12.99v-21.4h16.064v21.71l20.717-13.15c2.731,4.05,5.411,7.579,7.478,11.436.463.862-.83,3.433-1.995,4.267-5.876,4.207-11.974,8.1-18.712,12.578l22.16,14.925L763.2,534.855C756.33,530.477,749.919,526.391,742.536,521.688Z" transform="translate(772.074 543.714) rotate(180)" fill="#f45772"/>
</svg>
