<svg xmlns="http://www.w3.org/2000/svg" width="32.784" height="18.271" viewBox="0 0 32.784 18.271">
  <g id="Group_114" data-name="Group 114" transform="translate(-7.296 -19.175)">
    <g id="Group_113" data-name="Group 113" transform="translate(7.296 19.175)">
      <path id="Path_342" data-name="Path 342" d="M11.291,40.691A3.994,3.994,0,0,0,7.3,44.685h6.488a7.036,7.036,0,0,1,1.24-3.994Z" transform="translate(-7.296 -26.414)" fill="#fff"/>
      <path id="Path_343" data-name="Path 343" d="M44.521,44.119h0c-.03-.1-.065-.2-.1-.3h0C44.457,43.917,44.492,44.017,44.521,44.119Z" transform="translate(-19.787 -27.466)" fill="#fff"/>
      <path id="Path_344" data-name="Path 344" d="M44.731,44.914h0c-.018-.092-.042-.182-.064-.273v0C44.69,44.733,44.714,44.822,44.731,44.914Z" transform="translate(-19.87 -27.744)" fill="#fff"/>
      <path id="Path_345" data-name="Path 345" d="M43.136,41.449c-.062-.085-.122-.171-.189-.252.067.081.126.167.188.252Z" transform="translate(-19.291 -26.584)" fill="#fff"/>
      <path id="Path_346" data-name="Path 346" d="M44.926,46.706h0s0-.006,0-.01S44.926,46.7,44.926,46.706Z" transform="translate(-19.957 -28.435)" fill="#fff"/>
      <path id="Path_347" data-name="Path 347" d="M44.868,45.755h0c-.007-.074-.021-.146-.031-.219v0C44.848,45.611,44.861,45.682,44.868,45.755Z" transform="translate(-19.927 -28.045)" fill="#fff"/>
      <path id="Path_348" data-name="Path 348" d="M44.245,43.367h0c-.044-.111-.092-.219-.142-.326h0C44.153,43.149,44.2,43.257,44.245,43.367Z" transform="translate(-19.68 -27.205)" fill="#fff"/>
      <path id="Path_349" data-name="Path 349" d="M43.909,42.661h0q-.088-.175-.187-.343h0Q43.821,42.487,43.909,42.661Z" transform="translate(-19.552 -26.962)" fill="#fff"/>
      <path id="Path_350" data-name="Path 350" d="M43.519,42h0c-.074-.121-.152-.239-.235-.354h0C43.367,41.762,43.445,41.88,43.519,42Z" transform="translate(-19.405 -26.736)" fill="#fff"/>
      <path id="Path_351" data-name="Path 351" d="M52.785,44.685a3.994,3.994,0,0,0-3.994-3.994H45.058a7.036,7.036,0,0,1,1.24,3.994Z" transform="translate(-20.002 -26.414)" fill="#fff"/>
      <path id="Path_352" data-name="Path 352" d="M45.856,34.58a3.706,3.706,0,0,0,.744-.075,3.691,3.691,0,0,0,0-7.231,3.691,3.691,0,1,0-.744,7.306Z" transform="translate(-19.028 -21.875)" fill="#fff"/>
      <circle id="Ellipse_37" data-name="Ellipse 37" cx="3.69" cy="3.69" r="3.69" transform="translate(2.266 5.325)" fill="#fff"/>
      <circle id="Ellipse_38" data-name="Ellipse 38" cx="5.314" cy="5.314" r="5.314" transform="translate(11.078)" fill="#fff"/>
      <path id="Path_353" data-name="Path 353" d="M33.2,39.415l1.151-.4a5.71,5.71,0,0,0-3.2-.973H25.5a5.724,5.724,0,0,0-3.2.973l1.151.4L22.162,40.9a4.419,4.419,0,0,0-1.089,2.9h14.5a4.419,4.419,0,0,0-1.089-2.9Z" transform="translate(-11.932 -25.523)" fill="#fff"/>
      <path id="Path_354" data-name="Path 354" d="M21.059,41.029c-.1.117-.2.238-.289.363C20.861,41.268,20.957,41.146,21.059,41.029Z" transform="translate(-11.829 -26.528)" fill="#fff"/>
      <path id="Path_355" data-name="Path 355" d="M20.6,41.648c-.083.115-.16.233-.235.353C20.436,41.88,20.514,41.762,20.6,41.648Z" transform="translate(-11.692 -26.736)" fill="#fff"/>
      <path id="Path_356" data-name="Path 356" d="M19.528,43.818c-.035.1-.07.2-.1.3C19.458,44.017,19.492,43.917,19.528,43.818Z" transform="translate(-11.378 -27.466)" fill="#fff"/>
      <path id="Path_357" data-name="Path 357" d="M19.3,44.644c-.022.09-.046.179-.063.27C19.254,44.823,19.278,44.734,19.3,44.644Z" transform="translate(-11.314 -27.744)" fill="#fff"/>
      <path id="Path_358" data-name="Path 358" d="M19.146,45.541c-.01.072-.023.143-.03.215C19.123,45.684,19.137,45.613,19.146,45.541Z" transform="translate(-11.273 -28.046)" fill="#fff"/>
      <path id="Path_359" data-name="Path 359" d="M19.825,43.043c-.05.107-.1.214-.141.324C19.727,43.257,19.775,43.149,19.825,43.043Z" transform="translate(-11.464 -27.206)" fill="#fff"/>
      <path id="Path_360" data-name="Path 360" d="M20.183,42.32q-.1.167-.186.341C20.055,42.545,20.117,42.431,20.183,42.32Z" transform="translate(-11.57 -26.962)" fill="#fff"/>
      <path id="Path_361" data-name="Path 361" d="M22.777,39.908l-1.151-.4a5.78,5.78,0,0,0-1.138,1.009c-.1.117-.2.238-.289.363l-.035.047c-.083.114-.16.233-.235.353l-.056.093c-.066.111-.128.225-.186.341-.023.046-.045.092-.067.138-.05.107-.1.215-.141.324-.025.063-.047.126-.07.19-.036.1-.07.2-.1.3-.024.081-.043.164-.063.247s-.046.179-.063.27c-.021.107-.035.216-.05.325-.01.072-.023.143-.03.215-.018.185-.028.371-.028.561H20.4a4.419,4.419,0,0,1,1.089-2.9Z" transform="translate(-11.259 -26.016)" fill="#fff"/>
      <path id="Path_362" data-name="Path 362" d="M44.245,43.367c-.043-.11-.091-.218-.141-.324C44.154,43.149,44.2,43.257,44.245,43.367Z" transform="translate(-19.681 -27.206)" fill="#fff"/>
      <path id="Path_363" data-name="Path 363" d="M44.522,44.119c-.03-.1-.065-.2-.1-.3C44.457,43.917,44.492,44.017,44.522,44.119Z" transform="translate(-19.787 -27.466)" fill="#fff"/>
      <path id="Path_364" data-name="Path 364" d="M44.732,44.914c-.018-.091-.041-.18-.063-.27C44.69,44.734,44.714,44.823,44.732,44.914Z" transform="translate(-19.87 -27.744)" fill="#fff"/>
      <path id="Path_365" data-name="Path 365" d="M43.909,42.661q-.087-.174-.186-.341C43.789,42.431,43.85,42.545,43.909,42.661Z" transform="translate(-19.552 -26.962)" fill="#fff"/>
      <path id="Path_366" data-name="Path 366" d="M43.519,42c-.074-.121-.152-.239-.235-.353C43.367,41.762,43.445,41.88,43.519,42Z" transform="translate(-19.405 -26.736)" fill="#fff"/>
      <path id="Path_367" data-name="Path 367" d="M43.084,41.392c-.062-.084-.122-.171-.188-.252-.032-.039-.068-.073-.1-.111h0C42.9,41.146,42.992,41.268,43.084,41.392Z" transform="translate(-19.24 -26.528)" fill="#fff"/>
      <path id="Path_368" data-name="Path 368" d="M44.868,45.756c-.007-.073-.02-.143-.03-.215C44.848,45.613,44.861,45.684,44.868,45.756Z" transform="translate(-19.928 -28.046)" fill="#fff"/>
      <path id="Path_369" data-name="Path 369" d="M42.99,43.511c-.015-.109-.029-.218-.05-.325-.018-.091-.041-.181-.063-.27s-.04-.166-.063-.247c-.03-.1-.065-.2-.1-.3-.023-.064-.045-.127-.07-.19-.044-.11-.091-.218-.141-.324-.022-.046-.044-.093-.067-.138-.058-.116-.12-.23-.186-.341l-.056-.093c-.074-.121-.152-.239-.235-.353l-.035-.047c-.092-.125-.188-.246-.289-.363h0c-.088-.1-.176-.2-.27-.3a5.783,5.783,0,0,0-.851-.7l-.016-.01-1.151.4,1.288,1.48a4.419,4.419,0,0,1,1.088,2.9h1.327c0-.189-.01-.376-.028-.561C43.013,43.654,43,43.583,42.99,43.511Z" transform="translate(-18.08 -26.016)" fill="#fff"/>
    </g>
  </g>
</svg>
