<svg xmlns="http://www.w3.org/2000/svg" width="231.206" height="224.861" viewBox="0 0 231.206 224.861">
  <g id="Tekengebied_1" data-name="Tekengebied 1" transform="translate(-45.142 -36.71)">
    <path id="Path_308" data-name="Path 308" d="M53.754,269.666l18.634-49.149-7.2,1.906L98.48,263.139l1.9-7.209-51.908,8.433c-5.467.862-3.147,9.2,2.294,8.321l51.883-8.442c3.527-.569,3.716-4.984,1.906-7.2L71.284,216.326c-2.251-2.759-6.182-.811-7.209,1.9L45.442,267.373C43.467,272.572,51.806,274.814,53.754,269.666Z" transform="translate(0 -24.555)" fill="#fff"/>
    <circle id="Ellipse_23" data-name="Ellipse 23" cx="112.431" cy="112.431" r="112.431" transform="translate(51.487 36.71)" fill="#fff"/>
    <path id="Path_309" data-name="Path 309" d="M106.986,255.024,79.713,208.41,66.52,242.789l11.2,16.3Z" transform="translate(-2.945 -23.649)" fill="#fff"/>
    <path id="Path_310" data-name="Path 310" d="M219.745,187.751c-8.381,18.108-28.3,30.257-48.4,30.6-24.514.414-48.106-15.1-56.539-38.31-5.467-15.038-4.8-31.309-.759-46.614,4.216-15.986,11.373-33.835,24.868-44.286,17.081-13.219,39.5-7.993,56.746,1.293a106.615,106.615,0,0,1,9.907,6.036c.923.629,1.811,1.311,2.725,1.949,1.268.862-.638-.931-.155-.112,2.457,4.147,6.165,8.114,8.985,12.718,5.01,8.174,9.571,17.306,10.658,26.954.8,7.088,12.02,7.165,11.209,0-1.94-17.116-11.089-32.826-21.729-46.105-2.863-3.57-7.329-6.036-11.209-8.39-19.573-11.856-44.657-19.116-66.231-8.14-15.814,8.045-25.23,24.066-31.576,39.975-7.3,18.289-10.934,38.492-6.984,58,5.812,28.765,29.886,51.279,58.893,55.461,27.187,3.923,57.367-9.675,69.249-35.353,3.009-6.51-6.657-12.21-9.683-5.656Z" transform="translate(-7.506 -4.576)" fill="#f45772"/>
    <path id="Path_311" data-name="Path 311" d="M146.47,152.838v27.1c0,5.268,8.192,5.286,8.192,0v-27.1C154.662,147.57,146.47,147.561,146.47,152.838Z" transform="translate(-13.956 -15.45)" fill="#27f"/>
    <path id="Path_312" data-name="Path 312" d="M216.847,154.558c10.614,0,21.255-.233,31.9,0,3.449.078,7.562,1.276,9.278,5.174,1.474,3.363,1.474,8.4-1.535,10.925a9.6,9.6,0,0,1-2.742,1.44c-.509.216-2.647.466-.862.276-5.174.552-5.251,8.743,0,8.192,14.615-1.552,19.134-21.091,8.01-30.179-7.295-5.958-18.823-4.07-27.5-4.079H216.847c-5.277,0-5.286,8.192,0,8.192Z" transform="translate(-23.104 -15.057)" fill="#f45772"/>
    <path id="Path_313" data-name="Path 313" d="M222.879,145.282s-4.648,0-6.976-6.036c-2.207-5.717-6.614-6.036-6.614-6.036l5.527,13.615,17.659-1.509Z" transform="translate(-22.609 -13.291)" fill="#f45772" stroke="#f45772" stroke-miterlimit="10" stroke-width="1"/>
    <path id="Path_314" data-name="Path 314" d="M246.975,143.4s.069,1.966-2.733,3.139c-2.664,1.1-2.742,2.975-2.742,2.975l6.329-2.751-1-7.424Z" transform="translate(-27.045 -14.136)" fill="#f45772" stroke="#f45772" stroke-miterlimit="10" stroke-width="1"/>
    <path id="Path_315" data-name="Path 315" d="M222.989,155.081s-4.648,0-6.976,6.036c-2.207,5.717-6.614,6.036-6.614,6.036l5.527-13.632,17.659,1.509Z" transform="translate(-22.624 -16.089)" fill="#f45772" stroke="#f45772" stroke-miterlimit="10" stroke-width="1"/>
    <path id="Path_316" data-name="Path 316" d="M146.329,158.693s0-2.035-2.7-3.009a3.712,3.712,0,0,1-2.69-2.854l6.036,2.32-.526,7.76Z" transform="translate(-13.195 -15.994)" fill="#27f" stroke="#27f" stroke-miterlimit="10" stroke-width="1"/>
    <path id="Path_317" data-name="Path 317" d="M155.318,158.543s.043-2.035,2.7-3.009a3.733,3.733,0,0,0,2.7-2.854L154.68,155l.535,7.76Z" transform="translate(-15.087 -15.973)" fill="#27f" stroke="#27f" stroke-miterlimit="10" stroke-width="1"/>
    <ellipse id="Ellipse_24" data-name="Ellipse 24" cx="19.944" cy="21.307" rx="19.944" ry="21.307" transform="translate(84.442 114.236)" fill="#fcfcfc" stroke="#f45772" stroke-miterlimit="10" stroke-width="9"/>
    <ellipse id="Ellipse_25" data-name="Ellipse 25" cx="19.539" cy="21.307" rx="19.539" ry="21.307" transform="translate(151.578 114.098)" fill="#fff" stroke="#f45772" stroke-miterlimit="10" stroke-width="9"/>
    <line id="Line_10" data-name="Line 10" y1="0.138" x2="24.437" transform="translate(125.331 135.405)" fill="none" stroke="#f45772" stroke-miterlimit="10" stroke-width="10"/>
    <path id="Path_318" data-name="Path 318" d="M150.2,197.089c2.587,8.545,14.995,13.348,22.979,12.624s17.909-6.036,19.479-14.8c.974-5.424-7.329-7.76-8.312-2.294-.793,4.441-6.113,7.76-11.02,8.416a18.475,18.475,0,0,1-12.934-4.01,11.391,11.391,0,0,1-1.656-1.854c-.793-.983-.259-.457-.233-.379-1.587-5.3-9.916-3.044-8.312,2.294Z" transform="translate(-14.44 -21.045)" fill="#27f"/>
    <path id="Path_319" data-name="Path 319" d="M138.8,194.8s.56-.621-.233.379a11.3,11.3,0,0,1-1.656,1.854c-3.2,2.733-8.8,4.613-12.934,4.01-4.906-.716-10.218-3.932-11.02-8.416-.974-5.45-9.287-3.139-8.312,2.294,1.569,8.786,11.4,14.055,19.479,14.8s20.479-4.087,22.988-12.624C148.709,191.761,140.4,189.484,138.8,194.8Z" transform="translate(-8.185 -21.046)" fill="#27f"/>
    <rect id="Rectangle_59" data-name="Rectangle 59" width="19.72" height="3.958" transform="translate(128.409 168.766)" fill="#fff"/>
    <rect id="Rectangle_60" data-name="Rectangle 60" width="7.484" height="4.104" transform="translate(96.014 168.343)" fill="#f45772"/>
    <path id="Path_320" data-name="Path 320" d="M113.946,192.653l-.983.345-1.173-3.346,1.035-.362Z" transform="translate(-9.18 -21.016)" fill="#f45772"/>
    <rect id="Rectangle_61" data-name="Rectangle 61" width="19.72" height="5.199" transform="translate(167.392 167.524)" fill="#fff"/>
    <circle id="Ellipse_26" data-name="Ellipse 26" cx="4.975" cy="4.975" r="4.975" transform="translate(99.153 130.697)" fill="#101d54" stroke="#101d54" stroke-miterlimit="10" stroke-width="1"/>
    <path id="Path_321" data-name="Path 321" d="M114.522,193.747l-2,.017-.431-1.328,1.552-1.086.345.716Z" transform="translate(-9.221 -21.299)" fill="#f45772"/>
    <path id="Path_322" data-name="Path 322" d="M112.83,76.09a4.061,4.061,0,0,0-4.044-2.708c-3.216.052-22.419,0-22.419,0s-6.036.052-8.166-1.13a9.433,9.433,0,0,1-5-6.726c.207-.862,2.535-.69,2.535-.69H112.83Z" transform="translate(-3.865 -3.872)" fill="#27f" stroke="#27f" stroke-miterlimit="10" stroke-width="4"/>
    <path id="Path_323" data-name="Path 323" d="M241,76.09a4.061,4.061,0,0,1,4.044-2.708c3.216.052,22.462,0,22.462,0s6.036.052,8.157-1.13a9.416,9.416,0,0,0,5.01-6.726c-.216-.862-2.535-.69-2.535-.69H241.009Z" transform="translate(-26.976 -3.872)" fill="#27f" stroke="#27f" stroke-miterlimit="10" stroke-width="4"/>
    <path id="Path_324" data-name="Path 324" d="M122.3,71.433v26.2h99.221V67.32H122.3Z" transform="translate(-10.627 -4.216)" fill="#fff" stroke="#27f" stroke-miterlimit="10" stroke-width="9"/>
    <line id="Line_11" data-name="Line 11" x2="99.23" transform="translate(111.259 68.303)" fill="none" stroke="#27f" stroke-miterlimit="10" stroke-width="6"/>
    <path id="Path_325" data-name="Path 325" d="M180.628,154.647a15.719,15.719,0,0,1,4.423-4.656c5.07-3.449,9.528-.466,13.081,3.673,1.811,2.113,4.855-.949,3.052-3.044-4.165-4.863-10-8.364-16.383-5.441a19.237,19.237,0,0,0-7.924,7.295c-1.457,2.363,2.268,4.536,3.725,2.173Z" transform="translate(-18.099 -14.793)" fill="#101d54"/>
    <path id="Path_326" data-name="Path 326" d="M57.67,264.845,73.087,224.81l28.394,33.068Z" transform="translate(-1.726 -25.908)" fill="#fff"/>
  </g>
</svg>
