<svg xmlns="http://www.w3.org/2000/svg" width="273.82" height="270" viewBox="0 0 273.82 270">
  <g id="geel-professor" transform="translate(-41.18 -35)">
    <path id="Path_391" data-name="Path 391" d="M41.6,277.2,61,226.1a6.087,6.087,0,0,1,10.4-1.7L106,266.7a6.056,6.056,0,0,1-3.7,9.8l-53.9,8.8A6.04,6.04,0,0,1,41.6,277.2Z" fill="#fff"/>
    <path id="Path_451" data-name="Path 451" d="M135,0A135,135,0,1,1,0,135,135,135,0,0,1,135,0Z" transform="translate(45 35)" fill="#fff"/>
    <g id="Group_151" data-name="Group 151">
      <g id="Group_142" data-name="Group 142">
        <g id="Group_141" data-name="Group 141">
          <path id="Path_392" data-name="Path 392" d="M234.9,209.7c-9.7,21-32.8,35.1-56.1,35.5-28.4.5-55.8-17.5-65.6-44.4-6.3-17.4-5.6-36.3-.9-54.1,4.9-18.5,13.2-39.2,28.8-51.4,19.8-15.3,45.8-9.3,65.8,1.5a121.492,121.492,0,0,1,11.5,7c1.1.7,2.1,1.5,3.2,2.3,1.5,1-.7-1.1-.2-.1,2.8,4.8,7.1,9.4,10.4,14.8,5.8,9.5,11.1,20.1,12.4,31.3.9,8.2,13.9,8.3,13,0C255,132.2,244.4,114,232,98.6c-3.3-4.1-8.5-7-13-9.7-22.7-13.7-51.8-22.2-76.8-9.4-18.3,9.3-29.3,27.9-36.6,46.4-8.5,21.2-12.7,44.6-8.1,67.3,6.7,33.4,34.7,59.5,68.3,64.3,31.5,4.5,66.5-11.2,80.3-41,3.5-7.7-7.7-14.4-11.2-6.8Z" fill="#f45772"/>
        </g>
      </g>
      <g id="Group_144" data-name="Group 144">
        <g id="Group_143" data-name="Group 143">
          <path id="Path_393" data-name="Path 393" d="M142.4,156.6V188c0,6.1,9.5,6.1,9.5,0V156.6c0-6.1-9.5-6.1-9.5,0Z" fill="#27f"/>
        </g>
      </g>
      <g id="Group_146" data-name="Group 146">
        <g id="Group_145" data-name="Group 145">
          <path id="Path_394" data-name="Path 394" d="M213.4,159.1c12.3,0,24.7-.3,37,0,4,.1,8.8,1.5,10.8,6,1.7,3.9,1.7,9.7-1.8,12.7a12.266,12.266,0,0,1-3.2,1.7c-.6.3-3.1.5-1,.3-6,.6-6.1,10.1,0,9.5,17-1.8,22.2-24.5,9.3-35-8.5-6.9-21.8-4.7-31.9-4.7H213.4c-6.1,0-6.1,9.5,0,9.5Z" fill="#f45772"/>
        </g>
      </g>
      <path id="Path_395" data-name="Path 395" d="M221,150.4s-5.4,0-8.1-7c-2.6-6.6-7.7-7-7.7-7l6.4,15.8,20.5-1.8Z" fill="#f45772" stroke="#f45772" stroke-miterlimit="10" stroke-width="1"/>
      <path id="Path_396" data-name="Path 396" d="M243.8,147.2s.1,2.3-3.2,3.6c-3.1,1.3-3.2,3.5-3.2,3.5l7.3-3.2-1.2-8.6Z" fill="#f45772" stroke="#f45772" stroke-miterlimit="10" stroke-width="1"/>
      <path id="Path_397" data-name="Path 397" d="M221.1,158.5s-5.4,0-8.1,7c-2.6,6.6-7.7,7-7.7,7l6.4-15.8,20.5,1.7Z" fill="#f45772" stroke="#f45772" stroke-miterlimit="10" stroke-width="1"/>
      <path id="Path_398" data-name="Path 398" d="M143.1,162.8s0-2.4-3.1-3.5c-2.9-1.1-3.1-3.3-3.1-3.3l7,2.7-.6,9Z" fill="#27f" stroke="#27f" stroke-miterlimit="10" stroke-width="1"/>
      <path id="Path_399" data-name="Path 399" d="M151.4,162.7s0-2.4,3.1-3.5c2.9-1.1,3.1-3.3,3.1-3.3l-7,2.7.6,9Z" fill="#27f" stroke="#27f" stroke-miterlimit="10" stroke-width="1"/>
      <path id="Path_452" data-name="Path 452" d="M23.1,0C35.858,0,46.2,11.059,46.2,24.7S35.858,49.4,23.1,49.4,0,38.341,0,24.7,10.342,0,23.1,0Z" transform="translate(86.7 129.8)" fill="#fff" stroke="#f45772" stroke-width="11"/>
      <ellipse id="Ellipse_43" data-name="Ellipse 43" cx="22.7" cy="24.7" rx="22.7" ry="24.7" transform="translate(164.5 129.6)" fill="#fff" stroke="#f45772" stroke-miterlimit="10" stroke-width="11"/>
      <line id="Line_12" data-name="Line 12" y1="0.2" x2="28.3" transform="translate(134.1 154.3)" fill="none" stroke="#f45772" stroke-miterlimit="10" stroke-width="11"/>
      <g id="Group_148" data-name="Group 148">
        <g id="Group_147" data-name="Group 147">
          <path id="Path_400" data-name="Path 400" d="M146.2,201.5c3,9.9,17.4,15.5,26.7,14.6,9.4-.9,20.8-7,22.6-17.2,1.1-6.3-8.5-9-9.6-2.7-.9,5.1-7.1,9-12.8,9.8a21.237,21.237,0,0,1-15-4.7,9.678,9.678,0,0,1-1.9-2.2c-.9-1.1-.3-.5-.3-.4-1.9-6-11.6-3.4-9.7,2.8Z" fill="#27f"/>
        </g>
      </g>
      <g id="Group_150" data-name="Group 150">
        <g id="Group_149" data-name="Group 149">
          <path id="Path_401" data-name="Path 401" d="M140.2,198.8s.6-.7-.3.4a17.366,17.366,0,0,1-1.9,2.2c-3.7,3.2-10.2,5.3-15,4.7-5.7-.8-11.9-4.6-12.8-9.8-1.1-6.3-10.8-3.6-9.6,2.7,1.8,10.2,13.2,16.3,22.6,17.2,9.3.9,23.7-4.7,26.7-14.6,1.8-6.3-7.8-8.9-9.7-2.8Z" fill="#27f"/>
        </g>
      </g>
      <rect id="Rectangle_78" data-name="Rectangle 78" width="22.9" height="4.6" transform="translate(137.7 193)" fill="#fff"/>
      <rect id="Rectangle_79" data-name="Rectangle 79" width="8.7" height="4.8" transform="translate(100.1 192.5)" fill="#f45772"/>
      <path id="Path_402" data-name="Path 402" d="M110.2,196.4l-1.1.4-1.4-3.9,1.2-.4Z" fill="#f45772"/>
      <rect id="Rectangle_80" data-name="Rectangle 80" width="22.9" height="6" transform="translate(182.9 191.6)" fill="#fff"/>
      <circle id="Ellipse_44" data-name="Ellipse 44" cx="5.8" cy="5.8" r="5.8" transform="translate(182.8 149.2)" fill="#101d54"/>
      <circle id="Ellipse_45" data-name="Ellipse 45" cx="5.8" cy="5.8" r="5.8" transform="translate(106.1 149.2)" fill="#101d54"/>
      <path id="Path_403" data-name="Path 403" d="M110.9,197.3h-2.4l-.5-1.5,1.8-1.3.4.9Z" fill="#f45772"/>
      <path id="Path_404" data-name="Path 404" d="M115.1,81.1a4.706,4.706,0,0,0-4.7-3.1c-3.7.1-26,0-26,0s-7,.1-9.5-1.3a10.765,10.765,0,0,1-5.8-7.8c.2-1,2.9-.8,2.9-.8h43.1v13Z" fill="#27f" stroke="#27f" stroke-miterlimit="10" stroke-width="4"/>
      <path id="Path_405" data-name="Path 405" d="M237,81.1a4.706,4.706,0,0,1,4.7-3.1c3.7.1,26,0,26,0s7,.1,9.5-1.3a10.765,10.765,0,0,0,5.8-7.8c-.2-1-2.9-.8-2.9-.8H257.8L237,68Z" fill="#27f" stroke="#27f" stroke-miterlimit="10" stroke-width="4"/>
      <path id="Path_406" data-name="Path 406" d="M118.3,75.2v30.3H235.4v-35H118.3Z" fill="#fff" stroke="#27f" stroke-miterlimit="10" stroke-width="9"/>
      <line id="Line_13" data-name="Line 13" x2="115.1" transform="translate(117.8 76.5)" fill="none" stroke="#27f" stroke-miterlimit="10" stroke-width="6"/>
    </g>
  </g>
</svg>
