<svg xmlns="http://www.w3.org/2000/svg" width="198.347" height="197.413" viewBox="0 0 198.347 197.413">
  <g id="_2020.06.05-professor-face-happy" data-name="2020.06.05-professor-face-happy" transform="translate(-46.082 -33.2)">
    <g id="Group_32" data-name="Group 32" transform="matrix(0.995, -0.105, 0.105, 0.995, 46.082, 180.588)">
      <g id="Group_31" data-name="Group 31">
        <path id="Path_237" data-name="Path 237" d="M52.415,261.278l15.77-41.616c-2.044.511-4.089,1.1-6.133,1.606,9.418,11.463,18.764,23,28.182,34.461.511-2.044,1.1-4.089,1.606-6.133-14.6,2.409-29.277,4.819-43.88,7.228-4.6.73-2.628,7.812,1.971,7.009,14.675-2.409,29.277-4.746,43.953-7.155,2.993-.511,3.139-4.235,1.606-6.133-9.418-11.463-18.764-23-28.182-34.461-1.9-2.336-5.257-.657-6.133,1.606l-15.77,41.616C43.726,263.76,50.808,265.659,52.415,261.278Z" transform="translate(-45.15 -214.959)" fill="#101d54"/>
      </g>
    </g>
    <path id="Path_257" data-name="Path 257" d="M95.206,0A95.206,95.206,0,1,1,0,95.206,95.206,95.206,0,0,1,95.206,0Z" transform="translate(50.516 36.7)" fill="#fff" stroke="#101d54" stroke-width="7"/>
    <path id="Path_238" data-name="Path 238" d="M107.585,250.124,82.3,203.247,66.5,237.531l.7,13.4Z" transform="matrix(0.974, -0.225, 0.225, 0.974, -53.51, -11.192)" fill="#fff"/>
    <g id="Group_47" data-name="Group 47" transform="translate(65.63 57.277)">
      <g id="Group_34" data-name="Group 34" transform="translate(19.353 3.806)">
        <g id="Group_33" data-name="Group 33">
          <path id="Path_239" data-name="Path 239" d="M201.333,169.759c-7.082,15.332-23.948,25.627-40.959,25.919-20.735.365-40.74-12.777-47.9-32.417-4.6-12.7-4.089-26.5-.657-39.5,3.578-13.507,9.637-28.62,21.027-37.528,14.529-11.171,33.512-6.79,48.114,1.1a88.7,88.7,0,0,1,8.4,5.111c.8.511,1.533,1.1,2.336,1.679,1.1.73-.511-.8-.146-.073,2.044,3.5,5.184,6.863,7.593,10.806,4.235,6.936,8.1,14.675,9.053,22.852.657,5.987,10.149,6.06,9.491,0-1.606-14.529-9.345-27.817-18.4-39.061-2.409-2.993-6.206-5.111-9.491-7.082-16.574-10-37.82-16.208-56.072-6.863-13.361,6.79-21.392,20.37-26.722,33.877-6.206,15.478-9.272,32.563-5.914,49.136,4.892,24.386,25.335,43.442,49.867,46.946,23,3.286,48.552-8.177,58.628-29.935,2.482-5.695-5.695-10.514-8.25-4.965Z" transform="translate(-99.707 -70.097)" fill="#f45772"/>
        </g>
      </g>
      <g id="Group_36" data-name="Group 36" transform="translate(53.517 61.332)">
        <g id="Group_35" data-name="Group 35">
          <path id="Path_240" data-name="Path 240" d="M146.5,152.255v22.925c0,4.454,6.936,4.454,6.936,0V152.255c0-4.454-6.936-4.527-6.936,0Z" transform="translate(-146.5 -148.887)" fill="#27f"/>
        </g>
      </g>
      <g id="Group_38" data-name="Group 38" transform="translate(102.015 59.272)">
        <g id="Group_37" data-name="Group 37">
          <path id="Path_241" data-name="Path 241" d="M216.265,153.246c8.98,0,18.034-.219,27.014,0,2.92.073,6.425,1.1,7.885,4.381,1.241,2.847,1.241,7.082-1.314,9.272a8.956,8.956,0,0,1-2.336,1.241c-.438.219-2.263.365-.73.219-4.381.438-4.454,7.374,0,6.936,12.412-1.314,16.208-17.888,6.79-25.554-6.206-5.038-15.916-3.432-23.291-3.432H216.265c-4.454,0-4.454,6.936,0,6.936Z" transform="translate(-212.925 -146.066)" fill="#f45772"/>
        </g>
      </g>
      <path id="Path_242" data-name="Path 242" d="M220.736,143.422s-3.943,0-5.914-5.111c-1.9-4.819-5.622-5.111-5.622-5.111l4.673,11.536,14.967-1.314Z" transform="translate(-109.905 -83.322)" fill="#f45772" stroke="#f45772" stroke-miterlimit="10" stroke-width="1"/>
      <path id="Path_243" data-name="Path 243" d="M246.073,142.832s.073,1.679-2.336,2.628c-2.263.949-2.336,2.555-2.336,2.555l5.33-2.336-.876-6.279Z" transform="translate(-118.595 -84.995)" fill="#f45772" stroke="#f45772" stroke-miterlimit="10" stroke-width="1"/>
      <path id="Path_244" data-name="Path 244" d="M220.936,154.814s-3.943,0-5.914,5.111c-1.9,4.819-5.622,5.111-5.622,5.111l4.673-11.536,14.967,1.241Z" transform="translate(-109.959 -88.8)" fill="#f45772" stroke="#f45772" stroke-miterlimit="10" stroke-width="1"/>
      <path id="Path_245" data-name="Path 245" d="M145.527,157.765a2.955,2.955,0,0,0-2.263-2.555A3.165,3.165,0,0,1,141,152.8l5.111,1.971-.438,6.571Z" transform="translate(-91.499 -88.611)" fill="#27f" stroke="#27f" stroke-miterlimit="10" stroke-width="1"/>
      <path id="Path_246" data-name="Path 246" d="M155.184,157.665a2.955,2.955,0,0,1,2.263-2.555,3.165,3.165,0,0,0,2.263-2.409l-5.111,1.971.438,6.571Z" transform="translate(-95.169 -88.584)" fill="#27f" stroke="#27f" stroke-miterlimit="10" stroke-width="1"/>
      <ellipse id="Ellipse_12" data-name="Ellipse 12" cx="16.866" cy="18.034" rx="16.866" ry="18.034" transform="translate(12.85 45.06)" fill="#fcfcfc" stroke="#f45772" stroke-miterlimit="10" stroke-width="7"/>
      <ellipse id="Ellipse_13" data-name="Ellipse 13" cx="16.574" cy="18.034" rx="16.574" ry="18.034" transform="translate(69.58 44.987)" fill="#fff" stroke="#f45772" stroke-miterlimit="10" stroke-width="7"/>
      <line id="Line_4" data-name="Line 4" y1="0.073" x2="20.735" transform="translate(47.384 63.02)" fill="none" stroke="#f45772" stroke-miterlimit="10" stroke-width="7"/>
      <g id="Group_40" data-name="Group 40" transform="translate(56.055 90.921)">
        <g id="Group_39" data-name="Group 39">
          <path id="Path_247" data-name="Path 247" d="M150.14,195.9c2.19,7.228,12.7,11.317,19.494,10.66,6.863-.657,15.186-5.111,16.5-12.558.8-4.6-6.206-6.571-7.009-1.971-.657,3.724-5.184,6.571-9.345,7.155a15.506,15.506,0,0,1-10.952-3.432,7.066,7.066,0,0,1-1.387-1.606c-.657-.8-.219-.365-.219-.292-1.387-4.381-8.4-2.482-7.082,2.044Z" transform="translate(-149.976 -189.414)" fill="#27f"/>
        </g>
      </g>
      <g id="Group_42" data-name="Group 42" transform="translate(22.924 90.994)">
        <g id="Group_41" data-name="Group 41">
          <path id="Path_248" data-name="Path 248" d="M133.585,193.958s.438-.511-.219.292a12.68,12.68,0,0,1-1.387,1.606,15.746,15.746,0,0,1-10.952,3.432c-4.162-.584-8.688-3.359-9.345-7.155-.8-4.6-7.885-2.628-7.009,1.971,1.314,7.447,9.637,11.9,16.5,12.558,6.79.657,17.3-3.432,19.494-10.66,1.314-4.6-5.768-6.5-7.082-2.044Z" transform="translate(-104.597 -189.514)" fill="#27f"/>
        </g>
      </g>
      <rect id="Rectangle_48" data-name="Rectangle 48" width="16.72" height="3.359" transform="translate(50.013 91.276)" fill="#fff"/>
      <rect id="Rectangle_49" data-name="Rectangle 49" width="6.352" height="3.505" transform="translate(22.56 90.911)" fill="#f45772"/>
      <path id="Path_249" data-name="Path 249" d="M113.625,192.147l-.876.292-.949-2.847.876-.292Z" transform="translate(-83.618 -98.462)" fill="#f45772"/>
      <rect id="Rectangle_50" data-name="Rectangle 50" width="16.72" height="4.381" transform="translate(83.014 90.181)" fill="#fff"/>
      <path id="Path_250" data-name="Path 250" d="M114.144,193.445h-1.679l-.365-1.136,1.314-.909.292.606Z" transform="translate(-83.699 -99.029)" fill="#f45772"/>
      <path id="Path_251" data-name="Path 251" d="M106.785,74.387a3.436,3.436,0,0,0-3.432-2.263c-2.7.073-18.983,0-18.983,0s-5.111.073-6.936-.949A7.86,7.86,0,0,1,73.2,65.48c.146-.73,2.117-.584,2.117-.584h31.468Z" transform="translate(-73.2 -64.884)" fill="#27f" stroke="#27f" stroke-miterlimit="10" stroke-width="4"/>
      <path id="Path_252" data-name="Path 252" d="M241,74.387a3.436,3.436,0,0,1,3.432-2.263c2.7.073,18.983,0,18.983,0s5.111.073,6.936-.949a8.043,8.043,0,0,0,4.235-5.695c-.146-.73-2.117-.584-2.117-.584H241Z" transform="translate(-118.487 -64.884)" fill="#27f" stroke="#27f" stroke-miterlimit="10" stroke-width="4"/>
      <path id="Path_253" data-name="Path 253" d="M122.3,70.8V93h84.036V67.3H122.3Z" transform="translate(-86.452 -65.536)" fill="#fff" stroke="#27f" stroke-miterlimit="10" stroke-width="7.5"/>
      <line id="Line_5" data-name="Line 5" x2="84.036" transform="translate(35.483 6.145)" fill="none" stroke="#27f" stroke-miterlimit="10" stroke-width="6"/>
      <g id="Group_44" data-name="Group 44" transform="translate(17.898 56.508)">
        <g id="Group_43" data-name="Group 43">
          <path id="Path_254" data-name="Path 254" d="M102.888,152.078a19.717,19.717,0,0,1,3.5-3.212c4.016-2.482,7.374-.219,10,3.212,2.117,2.774,6.863.073,4.746-2.774-3.651-4.819-8.761-8.615-15.04-6.352a16.856,16.856,0,0,0-7.885,6.352c-2.044,2.92,2.7,5.622,4.673,2.774Z" transform="translate(-97.714 -142.28)" fill="#101d54"/>
        </g>
      </g>
      <g id="Group_46" data-name="Group 46" transform="translate(74.147 56.626)">
        <g id="Group_45" data-name="Group 45">
          <path id="Path_255" data-name="Path 255" d="M179.972,152.341a13.892,13.892,0,0,1,3.5-3.286c4.016-2.555,7.374-.146,9.93,3.286,2.044,2.774,6.863.073,4.746-2.774-3.651-4.892-8.761-8.761-15.04-6.425a17.375,17.375,0,0,0-7.885,6.425c-1.971,2.92,2.774,5.622,4.746,2.774Z" transform="translate(-174.756 -142.442)" fill="#101d54"/>
        </g>
      </g>
    </g>
    <path id="Path_256" data-name="Path 256" d="M57.7,258.677,70.769,224.8l14.81,29.809Z" transform="matrix(0.995, -0.105, 0.105, 0.995, -24.936, -30.761)" fill="#fff"/>
  </g>
</svg>
