<svg xmlns="http://www.w3.org/2000/svg" width="209.205" height="207.06" viewBox="0 0 209.205 207.06">
  <g id="Tekengebied2.2" transform="translate(-45.142 -33.21)">
    <path id="Path_408" data-name="Path 408" d="M52.8,263.635l16.578-43.728-6.406,1.7L92.6,257.828l1.688-6.413-46.183,7.5c-4.864.767-2.8,8.186,2.041,7.4l46.16-7.51c3.138-.506,3.306-4.434,1.7-6.406L68.4,216.179c-2-2.455-5.5-.721-6.413,1.688L45.409,261.595C43.652,266.221,51.071,268.215,52.8,263.635Z" transform="translate(0 -41.511)" fill="#101d54"/>
    <ellipse id="Ellipse_46" data-name="Ellipse 46" cx="100.03" cy="100.03" rx="100.03" ry="100.03" transform="translate(50.787 36.71)" fill="#fff" stroke="#101d54" stroke-miterlimit="10" stroke-width="7"/>
    <path id="Path_409" data-name="Path 409" d="M102.523,249.883,78.258,208.41,66.52,239l9.965,14.5Z" transform="translate(-4.978 -39.979)" fill="#fff"/>
    <path id="Path_410" data-name="Path 410" d="M206.5,174.756c-7.457,16.11-25.178,26.92-43.061,27.226-21.81.368-42.8-13.433-50.3-34.085-4.864-13.379-4.273-27.856-.675-41.473,3.751-14.223,10.119-30.1,22.125-39.4,15.2-11.761,35.144-7.112,50.487,1.151a94.852,94.852,0,0,1,8.815,5.37c.821.56,1.611,1.166,2.424,1.734,1.128.767-.568-.829-.138-.1,2.186,3.69,5.485,7.219,7.994,11.316,4.457,7.273,8.515,15.4,9.482,23.981.713,6.306,10.694,6.375,9.973,0-1.726-15.228-9.866-29.206-19.332-41.02-2.547-3.176-6.521-5.37-9.973-7.464C176.9,71.443,154.584,64.983,135.39,74.749c-14.07,7.158-22.447,21.411-28.093,35.565-6.5,16.271-9.728,34.246-6.214,51.607,5.171,25.592,26.59,45.623,52.4,49.344,24.189,3.491,51.039-8.608,61.611-31.454,2.677-5.792-5.922-10.863-8.615-5.033Z" transform="translate(-12.69 -7.737)" fill="#f45772"/>
    <path id="Path_411" data-name="Path 411" d="M146.47,152.4v24.112c0,4.687,7.288,4.7,7.288,0V152.4C153.758,147.715,146.47,147.707,146.47,152.4Z" transform="translate(-23.593 -26.119)" fill="#27f"/>
    <path id="Path_412" data-name="Path 412" d="M216.41,153.617c9.444,0,18.91-.207,28.385,0,3.069.069,6.728,1.135,8.255,4.6,1.312,2.992,1.312,7.472-1.366,9.72a8.539,8.539,0,0,1-2.44,1.281c-.453.192-2.355.414-.767.245-4.6.491-4.672,7.779,0,7.288,13-1.381,17.023-18.765,7.127-26.851-6.49-5.3-16.747-3.621-24.465-3.629H216.41c-4.7,0-4.7,7.288,0,7.288Z" transform="translate(-39.058 -25.454)" fill="#f45772"/>
    <path id="Path_413" data-name="Path 413" d="M221.38,143.95s-4.135,0-6.206-5.37c-1.964-5.086-5.884-5.37-5.884-5.37l4.917,12.113,15.711-1.343Z" transform="translate(-38.22 -22.469)" fill="#f45772" stroke="#f45772" stroke-miterlimit="10" stroke-width="1"/>
    <path id="Path_414" data-name="Path 414" d="M246.371,142.953s.061,1.749-2.432,2.792c-2.371.982-2.44,2.647-2.44,2.647l5.631-2.447-.89-6.605Z" transform="translate(-45.72 -23.896)" fill="#f45772" stroke="#f45772" stroke-miterlimit="10" stroke-width="1"/>
    <path id="Path_415" data-name="Path 415" d="M221.49,154.909s-4.135,0-6.206,5.37c-1.964,5.086-5.884,5.37-5.884,5.37l4.918-12.129,15.711,1.343Z" transform="translate(-38.246 -27.198)" fill="#f45772" stroke="#f45772" stroke-miterlimit="10" stroke-width="1"/>
    <path id="Path_416" data-name="Path 416" d="M145.735,158.047s0-1.81-2.4-2.677a3.3,3.3,0,0,1-2.394-2.539l5.37,2.064-.468,6.9Z" transform="translate(-22.306 -27.037)" fill="#27f" stroke="#27f" stroke-miterlimit="10" stroke-width="1"/>
    <path id="Path_417" data-name="Path 417" d="M155.248,157.9a3.2,3.2,0,0,1,2.4-2.677,3.321,3.321,0,0,0,2.4-2.539l-5.37,2.064.476,6.9Z" transform="translate(-25.505 -27.003)" fill="#27f" stroke="#27f" stroke-miterlimit="10" stroke-width="1"/>
    <ellipse id="Ellipse_47" data-name="Ellipse 47" cx="17.744" cy="18.956" rx="17.744" ry="18.956" transform="translate(80.108 105.685)" fill="#fcfcfc" stroke="#f45772" stroke-miterlimit="10" stroke-width="8"/>
    <ellipse id="Ellipse_48" data-name="Ellipse 48" cx="17.384" cy="18.956" rx="17.384" ry="18.956" transform="translate(139.839 105.563)" fill="#fff" stroke="#f45772" stroke-miterlimit="10" stroke-width="8"/>
    <line id="Line_14" data-name="Line 14" y1="0.123" x2="21.741" transform="translate(116.486 124.519)" fill="none" stroke="#f45772" stroke-miterlimit="10" stroke-width="8"/>
    <path id="Path_418" data-name="Path 418" d="M150.173,196.252c2.3,7.6,13.341,11.876,20.445,11.231s15.934-5.37,17.33-13.164c.867-4.825-6.521-6.9-7.4-2.041-.706,3.951-5.439,6.9-9.8,7.487A16.437,16.437,0,0,1,159.24,196.2a10.134,10.134,0,0,1-1.473-1.649c-.706-.875-.23-.407-.207-.338-1.412-4.718-8.822-2.708-7.4,2.041Z" transform="translate(-24.411 -35.577)" fill="#27f"/>
    <path id="Path_419" data-name="Path 419" d="M135.026,194.213s.5-.552-.207.338a10.049,10.049,0,0,1-1.473,1.649c-2.846,2.432-7.833,4.1-11.507,3.567-4.365-.637-9.091-3.5-9.8-7.487-.867-4.848-8.262-2.792-7.4,2.041,1.4,7.817,10.142,12.5,17.33,13.164s18.22-3.636,20.452-11.231C143.84,191.513,136.445,189.487,135.026,194.213Z" transform="translate(-13.837 -35.578)" fill="#27f"/>
    <rect id="Rectangle_81" data-name="Rectangle 81" width="17.545" height="3.521" transform="translate(119.225 154.2)" fill="#fff"/>
    <rect id="Rectangle_82" data-name="Rectangle 82" width="6.659" height="3.652" transform="translate(90.403 153.824)" fill="#f45772"/>
    <path id="Path_420" data-name="Path 420" d="M113.708,192.282l-.875.307-1.043-2.977.921-.322Z" transform="translate(-15.518 -35.527)" fill="#f45772"/>
    <rect id="Rectangle_83" data-name="Rectangle 83" width="17.545" height="4.626" transform="translate(153.908 153.096)" fill="#fff"/>
    <circle id="Ellipse_49" data-name="Ellipse 49" cx="4.427" cy="4.427" r="4.427" transform="translate(146.39 115.543)" fill="#101d54" stroke="#101d54" stroke-miterlimit="10" stroke-width="1"/>
    <circle id="Ellipse_50" data-name="Ellipse 50" cx="4.427" cy="4.427" r="4.427" transform="translate(87.495 114.009)" fill="#101d54" stroke="#101d54" stroke-miterlimit="10" stroke-width="1"/>
    <path id="Path_421" data-name="Path 421" d="M114.253,193.483l-1.78.015-.384-1.181,1.381-.967.307.637Z" transform="translate(-15.588 -36.007)" fill="#f45772"/>
    <path id="Path_422" data-name="Path 422" d="M108.459,74.848a3.613,3.613,0,0,0-3.6-2.409c-2.862.046-19.946,0-19.946,0s-5.37.046-7.265-1A8.393,8.393,0,0,1,73.2,65.45c.184-.767,2.255-.614,2.255-.614h33Z" transform="translate(-6.533 -6.546)" fill="#27f" stroke="#27f" stroke-miterlimit="10" stroke-width="4"/>
    <path id="Path_423" data-name="Path 423" d="M241,74.848a3.613,3.613,0,0,1,3.6-2.409c2.862.046,19.984,0,19.984,0s5.37.046,7.257-1A8.377,8.377,0,0,0,276.3,65.45c-.192-.767-2.255-.614-2.255-.614H241.008Z" transform="translate(-45.604 -6.546)" fill="#27f" stroke="#27f" stroke-miterlimit="10" stroke-width="4"/>
    <path id="Path_424" data-name="Path 424" d="M122.3,70.979V94.293h88.277V67.32H122.3Z" transform="translate(-17.966 -7.127)" fill="#fff" stroke="#27f" stroke-miterlimit="10" stroke-width="9"/>
    <line id="Line_15" data-name="Line 15" x2="88.285" transform="translate(103.966 64.819)" fill="none" stroke="#27f" stroke-miterlimit="10" stroke-width="6"/>
    <path id="Path_425" data-name="Path 425" d="M57.67,260.429,71.387,224.81l25.263,29.421Z" transform="translate(-2.917 -43.797)" fill="#fff"/>
  </g>
</svg>
