<svg xmlns="http://www.w3.org/2000/svg" width="295.36" height="50.819" viewBox="0 0 295.36 50.819">
  <g id="Group_25" data-name="Group 25" transform="translate(-335.486 -6351.5)">
    <g id="noun_Star_1359493" transform="translate(2031 6394.676)">
      <path id="Path_219" data-name="Path 219" d="M41.341,21.176l10.766,1.552a3.722,3.722,0,0,1,2.07,6.345l-7.781,7.6a3.722,3.722,0,0,0-1.067,3.3l1.852,10.719a3.722,3.722,0,0,1-5.4,3.93l-9.634-5.05a3.722,3.722,0,0,0-3.464,0l-9.622,5.074a3.722,3.722,0,0,1-5.4-3.917l1.826-10.723a3.722,3.722,0,0,0-1.074-3.293l-7.8-7.583a3.722,3.722,0,0,1,2.055-6.35L19.434,21.2a3.72,3.72,0,0,0,2.8-2.039l4.8-9.76A3.721,3.721,0,0,1,33.711,9.4l4.826,9.749A3.722,3.722,0,0,0,41.341,21.176Z" transform="translate(-1701 -49)" fill="#fff"/>
    </g>
    <g id="noun_Star_1359493-2" data-name="noun_Star_1359493" transform="translate(2092 6394.676)">
      <path id="Path_219-2" data-name="Path 219" d="M41.341,21.176l10.766,1.552a3.722,3.722,0,0,1,2.07,6.345l-7.781,7.6a3.722,3.722,0,0,0-1.067,3.3l1.852,10.719a3.722,3.722,0,0,1-5.4,3.93l-9.634-5.05a3.722,3.722,0,0,0-3.464,0l-9.622,5.074a3.722,3.722,0,0,1-5.4-3.917l1.826-10.723a3.722,3.722,0,0,0-1.074-3.293l-7.8-7.583a3.722,3.722,0,0,1,2.055-6.35L19.434,21.2a3.72,3.72,0,0,0,2.8-2.039l4.8-9.76A3.721,3.721,0,0,1,33.711,9.4l4.826,9.749A3.722,3.722,0,0,0,41.341,21.176Z" transform="translate(-1701 -49)" fill="#fff"/>
    </g>
    <g id="noun_Star_1359493-3" data-name="noun_Star_1359493" transform="translate(2153 6394.676)">
      <path id="Path_219-3" data-name="Path 219" d="M41.341,21.176l10.766,1.552a3.722,3.722,0,0,1,2.07,6.345l-7.781,7.6a3.722,3.722,0,0,0-1.067,3.3l1.852,10.719a3.722,3.722,0,0,1-5.4,3.93l-9.634-5.05a3.722,3.722,0,0,0-3.464,0l-9.622,5.074a3.722,3.722,0,0,1-5.4-3.917l1.826-10.723a3.722,3.722,0,0,0-1.074-3.293l-7.8-7.583a3.722,3.722,0,0,1,2.055-6.35L19.434,21.2a3.72,3.72,0,0,0,2.8-2.039l4.8-9.76A3.721,3.721,0,0,1,33.711,9.4l4.826,9.749A3.722,3.722,0,0,0,41.341,21.176Z" transform="translate(-1701 -49)" fill="#fff"/>
    </g>
    <g id="noun_Star_1359493-4" data-name="noun_Star_1359493" transform="translate(2214 6394.676)">
      <path id="Path_219-4" data-name="Path 219" d="M41.341,21.176l10.766,1.552a3.722,3.722,0,0,1,2.07,6.345l-7.781,7.6a3.722,3.722,0,0,0-1.067,3.3l1.852,10.719a3.722,3.722,0,0,1-5.4,3.93l-9.634-5.05a3.722,3.722,0,0,0-3.464,0l-9.622,5.074a3.722,3.722,0,0,1-5.4-3.917l1.826-10.723a3.722,3.722,0,0,0-1.074-3.293l-7.8-7.583a3.722,3.722,0,0,1,2.055-6.35L19.434,21.2a3.72,3.72,0,0,0,2.8-2.039l4.8-9.76A3.721,3.721,0,0,1,33.711,9.4l4.826,9.749A3.722,3.722,0,0,0,41.341,21.176Z" transform="translate(-1701 -49)" fill="#fff"/>
    </g>
    <g id="noun_Star_1359493-5" data-name="noun_Star_1359493" transform="translate(2275 6394.676)">
      <path id="Path_219-5" data-name="Path 219" d="M41.341,21.176l10.766,1.552a3.722,3.722,0,0,1,2.07,6.345l-7.781,7.6a3.722,3.722,0,0,0-1.067,3.3l1.852,10.719a3.722,3.722,0,0,1-5.4,3.93l-9.634-5.05a3.722,3.722,0,0,0-3.464,0l-9.622,5.074a3.722,3.722,0,0,1-5.4-3.917l1.826-10.723a3.722,3.722,0,0,0-1.074-3.293l-7.8-7.583a3.722,3.722,0,0,1,2.055-6.35L19.434,21.2a3.72,3.72,0,0,0,2.8-2.039l4.8-9.76A3.721,3.721,0,0,1,33.711,9.4l4.826,9.749A3.722,3.722,0,0,0,41.341,21.176Z" transform="translate(-1701 -49)" fill="none" stroke="#fff" stroke-width="3"/>
    </g>
  </g>
</svg>
